<?xml version="1.0" encoding="UTF-8"?>
<svg id="Calque_1" data-name="Calque 1" xmlns="http://www.w3.org/2000/svg" xmlns:xlink="http://www.w3.org/1999/xlink" viewBox="0 0 289.13 222.08">
  <defs>
    <style>
      .cls-1 {
        fill: url(#linear-gradient-2);
      }

      .cls-2 {
        fill: url(#linear-gradient-10);
      }

      .cls-3 {
        fill: url(#linear-gradient-4);
      }

      .cls-4 {
        fill: url(#linear-gradient-3);
      }

      .cls-5 {
        fill: url(#linear-gradient-5);
      }

      .cls-6 {
        fill: url(#linear-gradient-8);
      }

      .cls-7 {
        fill: url(#linear-gradient-7);
      }

      .cls-8 {
        fill: url(#linear-gradient-9);
      }

      .cls-9 {
        fill: url(#linear-gradient-11);
      }

      .cls-10 {
        fill: url(#linear-gradient-6);
      }

      .cls-11 {
        fill: url(#Blanc_Noir-2);
      }

      .cls-12 {
        fill: url(#linear-gradient);
      }

      .cls-13 {
        fill: url(#Blanc_Noir);
      }
    </style>
    <linearGradient id="Blanc_Noir" data-name="Blanc, Noir" x1="179.58" y1="166.51" x2="107.52" y2="86.31" gradientUnits="userSpaceOnUse">
      <stop offset="0" stop-color="#fff"/>
      <stop offset="1" stop-color="#000"/>
    </linearGradient>
    <linearGradient id="Blanc_Noir-2" data-name="Blanc, Noir" x1="138.8" y1="74.03" x2="106.87" y2="28.58" xlink:href="#Blanc_Noir"/>
    <linearGradient id="linear-gradient" x1="182.72" y1="166.46" x2="109.72" y2="85.19" gradientUnits="userSpaceOnUse">
      <stop offset="0" stop-color="#61c177"/>
      <stop offset="1" stop-color="#246a73"/>
    </linearGradient>
    <linearGradient id="linear-gradient-2" x1="142.54" y1="74.03" x2="110.61" y2="28.58" gradientUnits="userSpaceOnUse">
      <stop offset="0" stop-color="#61c177"/>
      <stop offset="1" stop-color="#2c8878"/>
    </linearGradient>
    <linearGradient id="linear-gradient-3" x1="0" y1="215.27" x2="261.62" y2="215.27" gradientTransform="translate(0 -213.06) scale(1 2)" gradientUnits="userSpaceOnUse">
      <stop offset="0" stop-color="#246a73"/>
      <stop offset=".2" stop-color="#276e73"/>
      <stop offset=".42" stop-color="#307c73"/>
      <stop offset=".66" stop-color="#409274"/>
      <stop offset=".9" stop-color="#56b176"/>
      <stop offset="1" stop-color="#61c177"/>
    </linearGradient>
    <linearGradient id="linear-gradient-4" x1="233.14" y1="173.21" x2="277.8" y2="204.38" gradientUnits="userSpaceOnUse">
      <stop offset="0" stop-color="#246a73"/>
      <stop offset="1" stop-color="#61c177"/>
    </linearGradient>
    <linearGradient id="linear-gradient-5" x1="166.03" y1="194.08" x2="213.88" y2="194.08" gradientUnits="userSpaceOnUse">
      <stop offset="0" stop-color="#246a73"/>
      <stop offset="1" stop-color="#61c177"/>
    </linearGradient>
    <linearGradient id="linear-gradient-6" x1="113.33" y1="194.14" x2="161.4" y2="194.14" gradientUnits="userSpaceOnUse">
      <stop offset="0" stop-color="#246a73"/>
      <stop offset="1" stop-color="#61c177"/>
    </linearGradient>
    <linearGradient id="linear-gradient-7" x1="75.71" y1="194.52" x2="109.84" y2="194.52" gradientUnits="userSpaceOnUse">
      <stop offset="0" stop-color="#246a73"/>
      <stop offset="1" stop-color="#61c177"/>
    </linearGradient>
    <linearGradient id="linear-gradient-8" x1="39.35" y1="194.94" x2="70.83" y2="193.93" gradientUnits="userSpaceOnUse">
      <stop offset="0" stop-color="#246a73"/>
      <stop offset="1" stop-color="#61c177"/>
    </linearGradient>
    <linearGradient id="linear-gradient-9" x1="22.88" y1="189.3" x2="35.13" y2="189.96" gradientUnits="userSpaceOnUse">
      <stop offset="0" stop-color="#246a73"/>
      <stop offset=".2" stop-color="#2c7573"/>
      <stop offset=".57" stop-color="#419474"/>
      <stop offset="1" stop-color="#61c177"/>
    </linearGradient>
    <linearGradient id="linear-gradient-10" x1="217.8" y1="194.48" x2="230.66" y2="194.48" gradientUnits="userSpaceOnUse">
      <stop offset="0" stop-color="#246a73"/>
      <stop offset=".2" stop-color="#276e73"/>
      <stop offset=".42" stop-color="#307b73"/>
      <stop offset=".65" stop-color="#3f9174"/>
      <stop offset=".88" stop-color="#54af76"/>
      <stop offset="1" stop-color="#61c177"/>
    </linearGradient>
    <linearGradient id="linear-gradient-11" x1="219.36" y1="173.47" x2="231.15" y2="173.47" gradientUnits="userSpaceOnUse">
      <stop offset="0" stop-color="#246a73"/>
      <stop offset="1" stop-color="#61c177"/>
    </linearGradient>
  </defs>
  <g>
    <path class="cls-13" d="M162.1,106.31c21.28-1.63,33.9,11.35,41.98,29.93,1.53,3.52,2.59,7.24,3.81,10.88.18.52.02,1.16.02,1.71-1.44.8-2.92.51-4.34.51-27.95.03-55.91.1-83.86,0-6.11-.02-11.97-1.48-16.86-5.46-4.61-3.75-6.71-8.91-6.75-14.61-.18-21.79,1.26-43.67,1.28-65.46,0-.43.06-.99,2.38-2.26.98,2.48-.51,4.17-.5,5.59.12,13.72,11.23,24.73,22.62,33.15,5.48,4.05,11.61,6.16,18.52,6.03,7.11-.13,14.22-.02,21.69-.02Z"/>
    <path class="cls-11" d="M137.93,37.1c0,20.16,0,40,0,60.12-6.77.43-11.68-2.7-16.11-6.68-9.55-8.58-14.88-19.76-18.71-31.68-5.91-18.37-8.19-37.3-7.61-56.57.02-.69.2-1.38.3-2.02,2.38-.82,4.18.48,6.05,1.13,10.96,3.8,21.05,9.01,28.68,18.08,4.22,5.01,6.78,10.75,7.4,17.63Z"/>
  </g>
  <g>
    <path class="cls-12" d="M165.3,106.31c21.28-1.63,33.9,11.35,41.98,29.93,1.53,3.52,2.59,7.24,3.81,10.88.18.52.02,1.16.02,1.71-1.44.8-2.92.51-4.34.51-27.95.03-55.91.1-83.86,0-6.11-.02-11.97-1.48-16.86-5.46-4.61-3.75-6.71-8.91-6.75-14.61-.18-21.79-.08-43.58-.07-65.38,0-.43.19-.87.53-2.34.98,2.48,1.58,4.1,2.26,5.69,5.38,12.62,11.67,24.62,23.06,33.04,5.48,4.05,11.61,6.16,18.52,6.03,7.11-.13,14.22-.02,21.69-.02Z"/>
    <path class="cls-1" d="M141.67,37.1c0,20.16,0,40,0,60.12-6.77.43-11.68-2.7-16.11-6.68-9.55-8.58-14.88-19.76-18.71-31.68-5.91-18.37-8.19-37.3-7.61-56.57.02-.69.2-1.38.3-2.02,2.38-.82,4.18.48,6.05,1.13,10.96,3.8,21.05,9.01,28.68,18.08,4.22,5.01,6.78,10.75,7.4,17.63Z"/>
    <path class="cls-4" d="M73.24,221.47s125.74,0,188.38,0c0-2.5,0-5,0-7.5-87.2-.52-174.39-.33-261.59-.5,0,2.67-.01,5.33-.02,8,24.26,0,73.24,0,73.24,0Z"/>
    <path class="cls-3" d="M264.19,206.41c-2.64-8.11-5.35-16.2-8.18-24.78-1.13,1.29-.88,2.39-.94,3.34-.13,1.86-.85,2.97-2.9,2.78-2.85-.26-3.4,1.4-3.43,3.81-.05,4.69-.29,9.38-.44,14.08-.07,2.18-.98,3.39-3.34,3.1-.36-.04-.72,0-1.08,0q-7.4.08-7.16-7.63c.18-3.22.4-6.1.53-8.99.08-1.84.69-3.72-2.07-4.63-1.82-.6-1.17-6.85.78-7.28,2.18-.48,2.14-1.79,2.32-3.39.6-5.22,3.06-7.45,8.27-7.6,1.93-.06,3.86,0,5.78.03,3.04.05,4.56,1.33,4.42,4.66-.11,2.7-.46,4.22-3.7,3.2-1.7-.53-3.32-.04-4.03,2.23,2.76,1.15,5.51.64,8.2.72,1.81.05,3.64.18,5.42-.04,3.48-.43,5.27.81,5.92,4.41.69,3.84,2.02,7.56,3.34,12.3,1.9-5.01,3.56-9,4.91-13.08.89-2.69,2.32-4.01,5.26-3.62,2.24.29,4.55-.3,6.68.32.62.81.33,1.48.04,2.15-4.49,10.49-8.98,20.98-13.47,31.47-3.81,8.92-5.01,8.76-12.67,7.51-5.01-1.27-1.62-4.38-1.06-7.5"/>
    <path class="cls-5" d="M166.07,197.15c.19-3.7.38-7.06.48-10.43.21-7.34-.74-6.63,6.97-6.68,3.42-.02,3.42-.01,5.06,1.5,5.53-3.01,10.93-3.48,16.3.94,3.07-2.41,6.64-3.48,10.65-3.16,5.62.44,8.56,3.54,8.33,9.17-.23,5.53-.62,11.05-.86,16.58-.11,2.65-1.14,3.94-3.99,3.7-2.47-.2-4.97-.04-7.95-.04.24-4.71.46-8.88.66-13.05.12-2.57,1.08-6.29-2.22-6.68-3.2-.38-3.52,3.26-3.7,5.95-.24,3.6-.52,7.2-.6,10.8-.05,2.14-.89,2.91-3.02,3.02-8.7.48-8.68.54-8.35-8.2.1-2.77.08-5.54.08-8.31,0-1.48-.12-3.16-1.92-3.41-1.86-.26-2.73,1.25-3.3,2.78-1.03,2.77-.84,5.68-.94,8.57-.35,10.35.66,8.25-8.89,8.56-.94.03-1.94.15-2.85-.59,0-3.52,0-7.09.04-11.01Z"/>
    <path class="cls-10" d="M157.59,180.46c3,1.68,3.93,4.18,3.8,7.14-.27,6.13-.62,12.26-.94,18.39-.01.24,0,.49-.05.72-.43,2.03-4.69,2.85-9.69,2.05-2.34-.38-1.98-1.88-1.9-3.49.2-4.33.33-8.65.43-12.98.03-1.47-.08-3.16-1.88-3.45-1.87-.29-2.81,1.22-3.32,2.74-1.31,3.97-.91,8.1-1.01,12.18-.12,4.9-.19,5.04-5.14,4.95-6.93-.12-7.1,1.6-6.64-7.05.17-3.12.73-6.21.32-9.36-.19-1.47-.15-3.16-1.96-3.4-1.85-.24-2.76,1.26-3.26,2.81-1.22,3.72-.93,7.64-1.15,11.45-.34,5.92.12,5.55-5.97,5.56-.48,0-.96,0-1.45,0-4.83-.02-4.64,0-4.3-4.87.48-6.7.78-13.42.86-20.13.03-2.86,1.01-4.12,3.79-3.64,2.6.44,5.51-1.28,7.83,1.25.55.6,1.29-.29,1.91-.58,5.16-2.37,10.01-2.15,14.67,1.84,4.42-3.56,9.42-4.22,15.04-2.14Z"/>
    <path class="cls-7" d="M109.74,191.45c.52,6.76-1.02,12.53-7.05,15.7-6.92,3.63-14.27,3.58-20.98-.57-7.52-4.65-8-17-1.24-22.96,5.93-5.22,17.15-5.87,23.63-1.39,3.15,2.18,4.86,5.23,5.64,9.22ZM88.56,190.98c-.79,1.96-.97,4.01-.45,6.02.68,2.65,2.49,4.31,5.27,3.73,2.74-.57,4.14-2.74,4.42-5.52.27-2.75.11-5.39-2.78-6.82-2.7-1.34-4.57.1-6.44,2.59Z"/>
    <path class="cls-6" d="M43.13,204.73c-4.16-5.18-4.81-10.69-2.32-16.44,2.51-5.82,7.6-8.17,13.49-8.87,2.59-.31,5.24-.28,7.88.46,8.19,2.29,12.09,7.65,11.4,15.94-.59,7.12-6.21,12.78-13.75,13.51-5.99.58-11.83.11-16.7-4.6ZM56.88,200.89c3.92-1.83,5.56-5.01,4.6-8.99-.49-2.04-1.78-3.42-3.81-3.94-1.83-.47-3.32.41-4.51,1.68-3.66,3.9-1.97,9.8,3.72,11.26Z"/>
    <path class="cls-8" d="M36.06,179.82c-.31,8.62-.68,16.9-.85,25.18-.06,2.72-.95,4.03-3.81,3.75-2.71-.26-5.48.32-8.53-.39.46-8.46.93-16.8,1.38-25.14.17-3.23.39-6.47.44-9.71.03-1.92.7-2.98,2.74-2.85.24.01.48-.02.72-.01,8.98.3,9.34-2.1,7.92,9.16Z"/>
    <path class="cls-2" d="M230.49,192.54c-.19,4.67-.42,8.99-.51,13.31-.04,1.91-.69,2.74-2.71,2.9-9.54.78-10.17.28-9.07-9.14.61-5.28.38-10.56.5-15.84.06-2.7.96-3.78,3.82-3.81,8.3-.07,8.3-.19,8.1,7.91-.04,1.44-.07,2.88-.12,4.68Z"/>
    <path class="cls-9" d="M222.57,169.93c1.79,0,3.23-.03,4.67,0,1.88.03,4.04-.42,3.9,2.7-.12,2.7-.63,4.77-4.08,4.33-1.42-.18-2.88-.03-4.32-.04-1.73,0-3.52.08-3.37-2.5.12-2.04-.72-4.66,3.21-4.5Z"/>
  </g>
</svg>